<mxfile host="app.diagrams.net" modified="2021-06-08T13:31:42.859Z" agent="5.0 (Windows NT 10.0; Win64; x64) AppleWebKit/537.36 (KHTML, like Gecko) Chrome/91.0.4472.77 Safari/537.36 Edg/91.0.864.41" etag="1E8OMdrVMFxa6CtmCZI3" version="14.6.11" type="github">
  <diagram id="LUirX3mQlPYVJ7ajiX6r" name="Page-1">
    <mxGraphModel dx="2272" dy="762" grid="1" gridSize="10" guides="1" tooltips="1" connect="1" arrows="1" fold="1" page="1" pageScale="1" pageWidth="850" pageHeight="1100" math="0" shadow="0">
      <root>
        <mxCell id="0" />
        <mxCell id="1" parent="0" />
        <mxCell id="0wUTYI8HaEMn-3QRFfi9-1" value="ratings" style="rounded=0;whiteSpace=wrap;html=1;fillColor=#fff2cc;strokeColor=#d6b656;" vertex="1" parent="1">
          <mxGeometry x="200" y="252.5" width="120" height="60" as="geometry" />
        </mxCell>
        <mxCell id="0wUTYI8HaEMn-3QRFfi9-2" value="keywords" style="rounded=0;whiteSpace=wrap;html=1;fillColor=#fff2cc;strokeColor=#d6b656;" vertex="1" parent="1">
          <mxGeometry x="1230" y="280" width="120" height="60" as="geometry" />
        </mxCell>
        <mxCell id="0wUTYI8HaEMn-3QRFfi9-3" value="ratings_small" style="rounded=0;whiteSpace=wrap;html=1;fillColor=#fff2cc;strokeColor=#d6b656;" vertex="1" parent="1">
          <mxGeometry x="20" y="490" width="120" height="60" as="geometry" />
        </mxCell>
        <mxCell id="0wUTYI8HaEMn-3QRFfi9-5" value="links" style="rounded=0;whiteSpace=wrap;html=1;fillColor=#fff2cc;strokeColor=#d6b656;" vertex="1" parent="1">
          <mxGeometry x="1230" y="490" width="120" height="60" as="geometry" />
        </mxCell>
        <mxCell id="0wUTYI8HaEMn-3QRFfi9-6" value="credits" style="rounded=0;whiteSpace=wrap;html=1;fillColor=#fff2cc;strokeColor=#d6b656;" vertex="1" parent="1">
          <mxGeometry x="690" y="180" width="120" height="60" as="geometry" />
        </mxCell>
        <mxCell id="0wUTYI8HaEMn-3QRFfi9-7" value="movies_metadata" style="rounded=0;whiteSpace=wrap;html=1;fillColor=#fff2cc;strokeColor=#d6b656;" vertex="1" parent="1">
          <mxGeometry x="690" y="490" width="120" height="60" as="geometry" />
        </mxCell>
        <mxCell id="0wUTYI8HaEMn-3QRFfi9-8" value="imbdId" style="ellipse;whiteSpace=wrap;html=1;fillColor=#d5e8d4;strokeColor=#82b366;" vertex="1" parent="1">
          <mxGeometry x="1360" y="615" width="120" height="30" as="geometry" />
        </mxCell>
        <mxCell id="0wUTYI8HaEMn-3QRFfi9-9" value="movieId" style="ellipse;whiteSpace=wrap;html=1;fillColor=#d5e8d4;strokeColor=#82b366;fontStyle=4" vertex="1" parent="1">
          <mxGeometry x="1230" y="615" width="120" height="30" as="geometry" />
        </mxCell>
        <mxCell id="0wUTYI8HaEMn-3QRFfi9-10" value="tmdbId" style="ellipse;whiteSpace=wrap;html=1;fillColor=#d5e8d4;strokeColor=#82b366;" vertex="1" parent="1">
          <mxGeometry x="1100" y="615" width="120" height="30" as="geometry" />
        </mxCell>
        <mxCell id="0wUTYI8HaEMn-3QRFfi9-12" value="" style="endArrow=none;html=1;exitX=0.5;exitY=0;exitDx=0;exitDy=0;entryX=0;entryY=1;entryDx=0;entryDy=0;" edge="1" parent="1" source="0wUTYI8HaEMn-3QRFfi9-10" target="0wUTYI8HaEMn-3QRFfi9-5">
          <mxGeometry width="50" height="50" relative="1" as="geometry">
            <mxPoint x="90" y="660" as="sourcePoint" />
            <mxPoint x="140" y="610" as="targetPoint" />
          </mxGeometry>
        </mxCell>
        <mxCell id="0wUTYI8HaEMn-3QRFfi9-14" value="" style="endArrow=none;html=1;exitX=0.5;exitY=0;exitDx=0;exitDy=0;entryX=0.5;entryY=1;entryDx=0;entryDy=0;" edge="1" parent="1" source="0wUTYI8HaEMn-3QRFfi9-9" target="0wUTYI8HaEMn-3QRFfi9-5">
          <mxGeometry width="50" height="50" relative="1" as="geometry">
            <mxPoint x="170" y="670" as="sourcePoint" />
            <mxPoint x="220" y="620" as="targetPoint" />
          </mxGeometry>
        </mxCell>
        <mxCell id="0wUTYI8HaEMn-3QRFfi9-15" value="" style="endArrow=none;html=1;exitX=0.5;exitY=0;exitDx=0;exitDy=0;entryX=1;entryY=1;entryDx=0;entryDy=0;" edge="1" parent="1" source="0wUTYI8HaEMn-3QRFfi9-8" target="0wUTYI8HaEMn-3QRFfi9-5">
          <mxGeometry width="50" height="50" relative="1" as="geometry">
            <mxPoint x="280" y="680" as="sourcePoint" />
            <mxPoint x="330" y="630" as="targetPoint" />
          </mxGeometry>
        </mxCell>
        <mxCell id="0wUTYI8HaEMn-3QRFfi9-19" value="crew" style="ellipse;whiteSpace=wrap;html=1;fillColor=#d5e8d4;strokeColor=#82b366;" vertex="1" parent="1">
          <mxGeometry x="860" y="89.99999999999996" width="120" height="27.96" as="geometry" />
        </mxCell>
        <mxCell id="0wUTYI8HaEMn-3QRFfi9-20" value="id" style="ellipse;whiteSpace=wrap;html=1;fillColor=#d5e8d4;strokeColor=#82b366;fontStyle=4" vertex="1" parent="1">
          <mxGeometry x="690" y="90.00000000000006" width="120" height="30" as="geometry" />
        </mxCell>
        <mxCell id="0wUTYI8HaEMn-3QRFfi9-21" value="cast" style="ellipse;whiteSpace=wrap;html=1;fillColor=#d5e8d4;strokeColor=#82b366;" vertex="1" parent="1">
          <mxGeometry x="520" y="90.00000000000006" width="120" height="30" as="geometry" />
        </mxCell>
        <mxCell id="0wUTYI8HaEMn-3QRFfi9-22" value="timestamp" style="ellipse;whiteSpace=wrap;html=1;fillColor=#d5e8d4;strokeColor=#82b366;" vertex="1" parent="1">
          <mxGeometry x="250" y="625" width="120" height="40" as="geometry" />
        </mxCell>
        <mxCell id="0wUTYI8HaEMn-3QRFfi9-23" value="movieId" style="ellipse;whiteSpace=wrap;html=1;fillColor=#d5e8d4;strokeColor=#82b366;fontStyle=4" vertex="1" parent="1">
          <mxGeometry x="-50" y="645" width="120" height="40" as="geometry" />
        </mxCell>
        <mxCell id="0wUTYI8HaEMn-3QRFfi9-24" value="userId" style="ellipse;whiteSpace=wrap;html=1;fillColor=#d5e8d4;strokeColor=#82b366;fontStyle=4" vertex="1" parent="1">
          <mxGeometry x="110" y="645" width="120" height="35" as="geometry" />
        </mxCell>
        <mxCell id="0wUTYI8HaEMn-3QRFfi9-25" value="rating" style="ellipse;whiteSpace=wrap;html=1;fillColor=#d5e8d4;strokeColor=#82b366;" vertex="1" parent="1">
          <mxGeometry x="-220" y="630" width="120" height="37.5" as="geometry" />
        </mxCell>
        <mxCell id="0wUTYI8HaEMn-3QRFfi9-30" value="" style="endArrow=none;html=1;exitX=0.5;exitY=0;exitDx=0;exitDy=0;entryX=0;entryY=1;entryDx=0;entryDy=0;" edge="1" parent="1" source="0wUTYI8HaEMn-3QRFfi9-25" target="0wUTYI8HaEMn-3QRFfi9-3">
          <mxGeometry width="50" height="50" relative="1" as="geometry">
            <mxPoint x="-430" y="280" as="sourcePoint" />
            <mxPoint x="-380" y="230" as="targetPoint" />
          </mxGeometry>
        </mxCell>
        <mxCell id="0wUTYI8HaEMn-3QRFfi9-32" value="" style="endArrow=none;html=1;entryX=0.5;entryY=1;entryDx=0;entryDy=0;exitX=0.5;exitY=0;exitDx=0;exitDy=0;" edge="1" parent="1" source="0wUTYI8HaEMn-3QRFfi9-24" target="0wUTYI8HaEMn-3QRFfi9-3">
          <mxGeometry width="50" height="50" relative="1" as="geometry">
            <mxPoint x="-200" y="430" as="sourcePoint" />
            <mxPoint x="-150" y="380" as="targetPoint" />
          </mxGeometry>
        </mxCell>
        <mxCell id="0wUTYI8HaEMn-3QRFfi9-33" value="" style="endArrow=none;html=1;entryX=1;entryY=1;entryDx=0;entryDy=0;exitX=0.5;exitY=0;exitDx=0;exitDy=0;" edge="1" parent="1" source="0wUTYI8HaEMn-3QRFfi9-22" target="0wUTYI8HaEMn-3QRFfi9-3">
          <mxGeometry width="50" height="50" relative="1" as="geometry">
            <mxPoint x="-100" y="300" as="sourcePoint" />
            <mxPoint x="-50" y="250" as="targetPoint" />
          </mxGeometry>
        </mxCell>
        <mxCell id="0wUTYI8HaEMn-3QRFfi9-34" value="" style="endArrow=none;html=1;entryX=0.5;entryY=1;entryDx=0;entryDy=0;exitX=0.5;exitY=0;exitDx=0;exitDy=0;" edge="1" parent="1" source="0wUTYI8HaEMn-3QRFfi9-23" target="0wUTYI8HaEMn-3QRFfi9-3">
          <mxGeometry width="50" height="50" relative="1" as="geometry">
            <mxPoint x="-340" y="500" as="sourcePoint" />
            <mxPoint x="-290" y="450" as="targetPoint" />
          </mxGeometry>
        </mxCell>
        <mxCell id="0wUTYI8HaEMn-3QRFfi9-36" value="rating" style="ellipse;whiteSpace=wrap;html=1;fillColor=#d5e8d4;strokeColor=#82b366;" vertex="1" parent="1">
          <mxGeometry x="400" y="210" width="120" height="37.5" as="geometry" />
        </mxCell>
        <mxCell id="0wUTYI8HaEMn-3QRFfi9-37" value="movieId" style="ellipse;whiteSpace=wrap;html=1;fillColor=#d5e8d4;strokeColor=#82b366;fontStyle=4" vertex="1" parent="1">
          <mxGeometry x="100" y="140" width="120" height="40" as="geometry" />
        </mxCell>
        <mxCell id="0wUTYI8HaEMn-3QRFfi9-38" value="userId" style="ellipse;whiteSpace=wrap;html=1;fillColor=#d5e8d4;strokeColor=#82b366;fontStyle=4" vertex="1" parent="1">
          <mxGeometry x="270" y="142.5" width="120" height="35" as="geometry" />
        </mxCell>
        <mxCell id="0wUTYI8HaEMn-3QRFfi9-39" value="timestamp" style="ellipse;whiteSpace=wrap;html=1;fillColor=#d5e8d4;strokeColor=#82b366;" vertex="1" parent="1">
          <mxGeometry x="20" y="207.5" width="120" height="40" as="geometry" />
        </mxCell>
        <mxCell id="0wUTYI8HaEMn-3QRFfi9-46" value="id" style="ellipse;whiteSpace=wrap;html=1;fillColor=#d5e8d4;strokeColor=#82b366;" vertex="1" parent="1">
          <mxGeometry x="1360" y="180" width="120" height="30" as="geometry" />
        </mxCell>
        <mxCell id="0wUTYI8HaEMn-3QRFfi9-47" value="keywords" style="ellipse;whiteSpace=wrap;html=1;fillColor=#d5e8d4;strokeColor=#82b366;" vertex="1" parent="1">
          <mxGeometry x="1100" y="180" width="120" height="30" as="geometry" />
        </mxCell>
        <mxCell id="0wUTYI8HaEMn-3QRFfi9-50" value="adult" style="ellipse;whiteSpace=wrap;html=1;fillColor=#d5e8d4;strokeColor=#82b366;" vertex="1" parent="1">
          <mxGeometry x="590" y="670" width="120" height="40" as="geometry" />
        </mxCell>
        <mxCell id="0wUTYI8HaEMn-3QRFfi9-51" value="id" style="ellipse;whiteSpace=wrap;html=1;fillColor=#d5e8d4;strokeColor=#82b366;fontStyle=4" vertex="1" parent="1">
          <mxGeometry x="690" y="630" width="120" height="30" as="geometry" />
        </mxCell>
        <mxCell id="0wUTYI8HaEMn-3QRFfi9-52" value="genres" style="ellipse;whiteSpace=wrap;html=1;fillColor=#d5e8d4;strokeColor=#82b366;" vertex="1" parent="1">
          <mxGeometry x="500" y="627.5" width="120" height="35" as="geometry" />
        </mxCell>
        <mxCell id="0wUTYI8HaEMn-3QRFfi9-53" value="title" style="ellipse;whiteSpace=wrap;html=1;fillColor=#d5e8d4;strokeColor=#82b366;" vertex="1" parent="1">
          <mxGeometry x="790" y="670" width="120" height="40" as="geometry" />
        </mxCell>
        <mxCell id="0wUTYI8HaEMn-3QRFfi9-54" value="video" style="ellipse;whiteSpace=wrap;html=1;fillColor=#d5e8d4;strokeColor=#82b366;" vertex="1" parent="1">
          <mxGeometry x="850" y="627.5" width="120" height="30" as="geometry" />
        </mxCell>
        <mxCell id="0wUTYI8HaEMn-3QRFfi9-55" value="" style="endArrow=none;html=1;entryX=0.5;entryY=1;entryDx=0;entryDy=0;exitX=0.5;exitY=0;exitDx=0;exitDy=0;" edge="1" parent="1" source="0wUTYI8HaEMn-3QRFfi9-53" target="0wUTYI8HaEMn-3QRFfi9-7">
          <mxGeometry width="50" height="50" relative="1" as="geometry">
            <mxPoint x="880" y="180" as="sourcePoint" />
            <mxPoint x="930" y="130" as="targetPoint" />
          </mxGeometry>
        </mxCell>
        <mxCell id="0wUTYI8HaEMn-3QRFfi9-56" value="" style="endArrow=none;html=1;entryX=0.5;entryY=1;entryDx=0;entryDy=0;exitX=0.5;exitY=0;exitDx=0;exitDy=0;" edge="1" parent="1" source="0wUTYI8HaEMn-3QRFfi9-51" target="0wUTYI8HaEMn-3QRFfi9-7">
          <mxGeometry width="50" height="50" relative="1" as="geometry">
            <mxPoint x="670" y="310" as="sourcePoint" />
            <mxPoint x="720" y="260" as="targetPoint" />
          </mxGeometry>
        </mxCell>
        <mxCell id="0wUTYI8HaEMn-3QRFfi9-57" value="" style="endArrow=none;html=1;entryX=0;entryY=1;entryDx=0;entryDy=0;exitX=0.5;exitY=0;exitDx=0;exitDy=0;" edge="1" parent="1" source="0wUTYI8HaEMn-3QRFfi9-52" target="0wUTYI8HaEMn-3QRFfi9-7">
          <mxGeometry width="50" height="50" relative="1" as="geometry">
            <mxPoint x="560" y="290" as="sourcePoint" />
            <mxPoint x="610" y="240" as="targetPoint" />
          </mxGeometry>
        </mxCell>
        <mxCell id="0wUTYI8HaEMn-3QRFfi9-58" value="" style="endArrow=none;html=1;entryX=0.5;entryY=1;entryDx=0;entryDy=0;exitX=0.5;exitY=0;exitDx=0;exitDy=0;" edge="1" parent="1" source="0wUTYI8HaEMn-3QRFfi9-50" target="0wUTYI8HaEMn-3QRFfi9-7">
          <mxGeometry width="50" height="50" relative="1" as="geometry">
            <mxPoint x="590" y="300" as="sourcePoint" />
            <mxPoint x="640" y="250" as="targetPoint" />
          </mxGeometry>
        </mxCell>
        <mxCell id="0wUTYI8HaEMn-3QRFfi9-60" value="has" style="rhombus;whiteSpace=wrap;html=1;fillColor=#0050ef;strokeColor=#001DBC;fontColor=#ffffff;" vertex="1" parent="1">
          <mxGeometry x="710" y="312.5" width="80" height="80" as="geometry" />
        </mxCell>
        <mxCell id="0wUTYI8HaEMn-3QRFfi9-61" value="has" style="rhombus;whiteSpace=wrap;html=1;fillColor=#0050ef;strokeColor=#001DBC;fontColor=#ffffff;" vertex="1" parent="1">
          <mxGeometry x="1010" y="350" width="80" height="80" as="geometry" />
        </mxCell>
        <mxCell id="0wUTYI8HaEMn-3QRFfi9-62" value="has" style="rhombus;whiteSpace=wrap;html=1;fillColor=#0050ef;strokeColor=#001DBC;fontColor=#ffffff;" vertex="1" parent="1">
          <mxGeometry x="320" y="480" width="80" height="80" as="geometry" />
        </mxCell>
        <mxCell id="0wUTYI8HaEMn-3QRFfi9-63" value="has" style="rhombus;whiteSpace=wrap;html=1;fillColor=#0050ef;strokeColor=#001DBC;fontColor=#ffffff;" vertex="1" parent="1">
          <mxGeometry x="1020" y="480" width="80" height="80" as="geometry" />
        </mxCell>
        <mxCell id="0wUTYI8HaEMn-3QRFfi9-64" value="has" style="rhombus;whiteSpace=wrap;html=1;fillColor=#0050ef;strokeColor=#001DBC;fontColor=#ffffff;" vertex="1" parent="1">
          <mxGeometry x="490" y="362.5" width="80" height="80" as="geometry" />
        </mxCell>
        <mxCell id="0wUTYI8HaEMn-3QRFfi9-65" value="" style="endArrow=none;html=1;entryX=1;entryY=1;entryDx=0;entryDy=0;exitX=0.5;exitY=0;exitDx=0;exitDy=0;" edge="1" parent="1" source="0wUTYI8HaEMn-3QRFfi9-54" target="0wUTYI8HaEMn-3QRFfi9-7">
          <mxGeometry width="50" height="50" relative="1" as="geometry">
            <mxPoint x="900" y="590" as="sourcePoint" />
            <mxPoint x="950" y="540" as="targetPoint" />
          </mxGeometry>
        </mxCell>
        <mxCell id="0wUTYI8HaEMn-3QRFfi9-66" value="" style="endArrow=classic;html=1;exitX=1;exitY=0.5;exitDx=0;exitDy=0;entryX=0;entryY=0.5;entryDx=0;entryDy=0;" edge="1" parent="1" source="0wUTYI8HaEMn-3QRFfi9-7" target="0wUTYI8HaEMn-3QRFfi9-63">
          <mxGeometry width="50" height="50" relative="1" as="geometry">
            <mxPoint x="900" y="540" as="sourcePoint" />
            <mxPoint x="950" y="490" as="targetPoint" />
          </mxGeometry>
        </mxCell>
        <mxCell id="0wUTYI8HaEMn-3QRFfi9-67" value="" style="endArrow=classic;html=1;entryX=1;entryY=0.5;entryDx=0;entryDy=0;exitX=0;exitY=0.5;exitDx=0;exitDy=0;" edge="1" parent="1" source="0wUTYI8HaEMn-3QRFfi9-5" target="0wUTYI8HaEMn-3QRFfi9-63">
          <mxGeometry width="50" height="50" relative="1" as="geometry">
            <mxPoint x="1170" y="610" as="sourcePoint" />
            <mxPoint x="1220" y="560" as="targetPoint" />
          </mxGeometry>
        </mxCell>
        <mxCell id="0wUTYI8HaEMn-3QRFfi9-70" value="" style="endArrow=classic;html=1;exitX=1;exitY=0;exitDx=0;exitDy=0;entryX=0;entryY=0.5;entryDx=0;entryDy=0;" edge="1" parent="1" source="0wUTYI8HaEMn-3QRFfi9-7" target="0wUTYI8HaEMn-3QRFfi9-61">
          <mxGeometry width="50" height="50" relative="1" as="geometry">
            <mxPoint x="900" y="445" as="sourcePoint" />
            <mxPoint x="950" y="395" as="targetPoint" />
          </mxGeometry>
        </mxCell>
        <mxCell id="0wUTYI8HaEMn-3QRFfi9-71" value="" style="endArrow=classic;html=1;entryX=1;entryY=0.5;entryDx=0;entryDy=0;exitX=0;exitY=0.5;exitDx=0;exitDy=0;" edge="1" parent="1" source="0wUTYI8HaEMn-3QRFfi9-2" target="0wUTYI8HaEMn-3QRFfi9-61">
          <mxGeometry width="50" height="50" relative="1" as="geometry">
            <mxPoint x="1150" y="340" as="sourcePoint" />
            <mxPoint x="1200" y="290" as="targetPoint" />
          </mxGeometry>
        </mxCell>
        <mxCell id="0wUTYI8HaEMn-3QRFfi9-74" value="" style="endArrow=classic;html=1;entryX=0.5;entryY=1;entryDx=0;entryDy=0;exitX=0.5;exitY=0;exitDx=0;exitDy=0;" edge="1" parent="1" source="0wUTYI8HaEMn-3QRFfi9-7" target="0wUTYI8HaEMn-3QRFfi9-60">
          <mxGeometry width="50" height="50" relative="1" as="geometry">
            <mxPoint x="600" y="470" as="sourcePoint" />
            <mxPoint x="650" y="420" as="targetPoint" />
          </mxGeometry>
        </mxCell>
        <mxCell id="0wUTYI8HaEMn-3QRFfi9-75" value="" style="endArrow=classic;html=1;exitX=0.5;exitY=1;exitDx=0;exitDy=0;entryX=0.5;entryY=0;entryDx=0;entryDy=0;" edge="1" parent="1" source="0wUTYI8HaEMn-3QRFfi9-6" target="0wUTYI8HaEMn-3QRFfi9-60">
          <mxGeometry width="50" height="50" relative="1" as="geometry">
            <mxPoint x="860" y="320" as="sourcePoint" />
            <mxPoint x="910" y="270" as="targetPoint" />
          </mxGeometry>
        </mxCell>
        <mxCell id="0wUTYI8HaEMn-3QRFfi9-76" value="" style="endArrow=none;html=1;entryX=1;entryY=0;entryDx=0;entryDy=0;exitX=0.45;exitY=1.036;exitDx=0;exitDy=0;exitPerimeter=0;" edge="1" parent="1" source="0wUTYI8HaEMn-3QRFfi9-19" target="0wUTYI8HaEMn-3QRFfi9-6">
          <mxGeometry width="50" height="50" relative="1" as="geometry">
            <mxPoint x="880" y="180" as="sourcePoint" />
            <mxPoint x="900" y="210" as="targetPoint" />
          </mxGeometry>
        </mxCell>
        <mxCell id="0wUTYI8HaEMn-3QRFfi9-77" value="" style="endArrow=none;html=1;exitX=0.5;exitY=0;exitDx=0;exitDy=0;" edge="1" parent="1" source="0wUTYI8HaEMn-3QRFfi9-6" target="0wUTYI8HaEMn-3QRFfi9-20">
          <mxGeometry width="50" height="50" relative="1" as="geometry">
            <mxPoint x="540" y="270" as="sourcePoint" />
            <mxPoint x="590" y="220" as="targetPoint" />
          </mxGeometry>
        </mxCell>
        <mxCell id="0wUTYI8HaEMn-3QRFfi9-78" value="" style="endArrow=none;html=1;entryX=0.5;entryY=1;entryDx=0;entryDy=0;exitX=0;exitY=0;exitDx=0;exitDy=0;" edge="1" parent="1" source="0wUTYI8HaEMn-3QRFfi9-6" target="0wUTYI8HaEMn-3QRFfi9-21">
          <mxGeometry width="50" height="50" relative="1" as="geometry">
            <mxPoint x="630" y="250" as="sourcePoint" />
            <mxPoint x="680" y="200" as="targetPoint" />
          </mxGeometry>
        </mxCell>
        <mxCell id="0wUTYI8HaEMn-3QRFfi9-79" value="" style="endArrow=none;html=1;exitX=1;exitY=0.5;exitDx=0;exitDy=0;entryX=0;entryY=0;entryDx=0;entryDy=0;" edge="1" parent="1" source="0wUTYI8HaEMn-3QRFfi9-64" target="0wUTYI8HaEMn-3QRFfi9-7">
          <mxGeometry width="50" height="50" relative="1" as="geometry">
            <mxPoint x="610" y="520" as="sourcePoint" />
            <mxPoint x="660" y="470" as="targetPoint" />
          </mxGeometry>
        </mxCell>
        <mxCell id="0wUTYI8HaEMn-3QRFfi9-80" value="" style="endArrow=classic;html=1;entryX=0;entryY=0.5;entryDx=0;entryDy=0;exitX=1;exitY=0.5;exitDx=0;exitDy=0;" edge="1" parent="1" source="0wUTYI8HaEMn-3QRFfi9-1" target="0wUTYI8HaEMn-3QRFfi9-64">
          <mxGeometry width="50" height="50" relative="1" as="geometry">
            <mxPoint x="350" y="290" as="sourcePoint" />
            <mxPoint x="500" y="300" as="targetPoint" />
          </mxGeometry>
        </mxCell>
        <mxCell id="0wUTYI8HaEMn-3QRFfi9-81" value="" style="endArrow=none;html=1;exitX=0;exitY=0;exitDx=0;exitDy=0;entryX=0.5;entryY=1;entryDx=0;entryDy=0;" edge="1" parent="1" source="0wUTYI8HaEMn-3QRFfi9-2" target="0wUTYI8HaEMn-3QRFfi9-47">
          <mxGeometry width="50" height="50" relative="1" as="geometry">
            <mxPoint x="1290" y="240" as="sourcePoint" />
            <mxPoint x="1190" y="230" as="targetPoint" />
          </mxGeometry>
        </mxCell>
        <mxCell id="0wUTYI8HaEMn-3QRFfi9-82" value="" style="endArrow=none;html=1;exitX=1;exitY=0;exitDx=0;exitDy=0;entryX=0.5;entryY=1;entryDx=0;entryDy=0;" edge="1" parent="1" source="0wUTYI8HaEMn-3QRFfi9-2" target="0wUTYI8HaEMn-3QRFfi9-46">
          <mxGeometry width="50" height="50" relative="1" as="geometry">
            <mxPoint x="1440" y="290" as="sourcePoint" />
            <mxPoint x="1490" y="240" as="targetPoint" />
          </mxGeometry>
        </mxCell>
        <mxCell id="0wUTYI8HaEMn-3QRFfi9-83" value="" style="endArrow=none;html=1;entryX=0.5;entryY=1;entryDx=0;entryDy=0;exitX=0;exitY=0;exitDx=0;exitDy=0;" edge="1" parent="1" source="0wUTYI8HaEMn-3QRFfi9-1" target="0wUTYI8HaEMn-3QRFfi9-39">
          <mxGeometry width="50" height="50" relative="1" as="geometry">
            <mxPoint x="80" y="350" as="sourcePoint" />
            <mxPoint x="130" y="300" as="targetPoint" />
          </mxGeometry>
        </mxCell>
        <mxCell id="0wUTYI8HaEMn-3QRFfi9-84" value="" style="endArrow=none;html=1;exitX=1;exitY=0;exitDx=0;exitDy=0;entryX=0.5;entryY=1;entryDx=0;entryDy=0;" edge="1" parent="1" source="0wUTYI8HaEMn-3QRFfi9-1" target="0wUTYI8HaEMn-3QRFfi9-36">
          <mxGeometry width="50" height="50" relative="1" as="geometry">
            <mxPoint x="400" y="320" as="sourcePoint" />
            <mxPoint x="450" y="270" as="targetPoint" />
          </mxGeometry>
        </mxCell>
        <mxCell id="0wUTYI8HaEMn-3QRFfi9-86" value="" style="endArrow=none;html=1;entryX=0.5;entryY=1;entryDx=0;entryDy=0;exitX=0.5;exitY=0;exitDx=0;exitDy=0;" edge="1" parent="1" source="0wUTYI8HaEMn-3QRFfi9-1" target="0wUTYI8HaEMn-3QRFfi9-37">
          <mxGeometry width="50" height="50" relative="1" as="geometry">
            <mxPoint x="170" y="400" as="sourcePoint" />
            <mxPoint x="220" y="350" as="targetPoint" />
          </mxGeometry>
        </mxCell>
        <mxCell id="0wUTYI8HaEMn-3QRFfi9-87" value="" style="endArrow=none;html=1;exitX=0.5;exitY=0;exitDx=0;exitDy=0;entryX=0.5;entryY=1;entryDx=0;entryDy=0;" edge="1" parent="1" source="0wUTYI8HaEMn-3QRFfi9-1" target="0wUTYI8HaEMn-3QRFfi9-38">
          <mxGeometry width="50" height="50" relative="1" as="geometry">
            <mxPoint x="340" y="240" as="sourcePoint" />
            <mxPoint x="390" y="190" as="targetPoint" />
          </mxGeometry>
        </mxCell>
        <mxCell id="0wUTYI8HaEMn-3QRFfi9-88" value="" style="endArrow=classic;html=1;exitX=1;exitY=0.5;exitDx=0;exitDy=0;entryX=0;entryY=0.5;entryDx=0;entryDy=0;" edge="1" parent="1" source="0wUTYI8HaEMn-3QRFfi9-3" target="0wUTYI8HaEMn-3QRFfi9-62">
          <mxGeometry width="50" height="50" relative="1" as="geometry">
            <mxPoint x="210" y="550" as="sourcePoint" />
            <mxPoint x="260" y="500" as="targetPoint" />
          </mxGeometry>
        </mxCell>
        <mxCell id="0wUTYI8HaEMn-3QRFfi9-89" value="" style="endArrow=none;html=1;exitX=1;exitY=0.5;exitDx=0;exitDy=0;entryX=0;entryY=0.5;entryDx=0;entryDy=0;" edge="1" parent="1" source="0wUTYI8HaEMn-3QRFfi9-62" target="0wUTYI8HaEMn-3QRFfi9-7">
          <mxGeometry width="50" height="50" relative="1" as="geometry">
            <mxPoint x="570" y="560" as="sourcePoint" />
            <mxPoint x="620" y="510" as="targetPoint" />
          </mxGeometry>
        </mxCell>
      </root>
    </mxGraphModel>
  </diagram>
</mxfile>
